<?xml version="1.0" encoding="utf-8"?>
<!-- Generator: Adobe Illustrator 19.0.0, SVG Export Plug-In . SVG Version: 6.00 Build 0)  -->
<svg version="1.1" id="Calque_1" xmlns="http://www.w3.org/2000/svg" xmlns:xlink="http://www.w3.org/1999/xlink" x="0px" y="0px"
	 viewBox="0 0 136.1 136.1" style="enable-background:new 0 0 136.1 136.1;" xml:space="preserve">
<style type="text/css">
	.st0{fill:#FFFFFF;}
</style>
<g id="XMLID_292_">
	<path id="XMLID_294_" class="st0" d="M103.1,32.9c-9.4-9.4-21.8-14.5-35.1-14.5V0L42.8,25.3l25.3,25.3V32.1
		c19.8,0,35.9,16.1,35.9,35.9c0,4.5-0.8,8.7-2.3,12.7L112,91.1c3.7-7,5.7-14.9,5.7-23.1C117.7,54.8,112.5,42.3,103.1,32.9z"/>
	<path id="XMLID_293_" class="st0" d="M68,85.5v18.4c-19.8,0-35.9-16.1-35.9-35.9c0-4.2,0.7-8.2,2.1-12L23.7,45.6
		c-3.5,6.9-5.3,14.5-5.3,22.4c0,13.3,5.2,25.7,14.5,35.1c9.4,9.4,21.8,14.5,35.1,14.5v18.4l25.2-25.2l0,0L68,85.5L68,85.5z"/>
</g>
</svg>
